<svg width="180" height="53" viewBox="0 0 180 53" fill="none" xmlns="http://www.w3.org/2000/svg"><g clip-path="url(#clip0)"><path d="M36.56 48.526c0 .905-.664 1.817-1.87 1.817h-1.12v2.524h-1.002V46.76h2.16c1.215-.005 1.83.887 1.83 1.766zm-1.983.905c.643 0 .974-.47.974-.918.002-.44-.31-.845-.953-.845H33.57v1.764h1.007zM40.71 52.86l-1.392-2.523h-.81v2.523h-1v-6.105h2.16c1.2 0 1.837.865 1.837 1.738 0 .68-.37 1.37-1.12 1.678l1.544 2.697h-1.22v-.006zm-.22-4.327c0-.433-.337-.866-.974-.866H38.51v1.758h1.006c.644 0 .975-.446.975-.892zM48.617 49.81c0 1.805-1.365 3.197-3.142 3.197-1.783 0-3.15-1.385-3.15-3.196 0-1.817 1.367-3.195 3.15-3.195 1.777 0 3.142 1.378 3.142 3.196zm-5.277 0c0 1.292.948 2.238 2.128 2.238 1.174 0 2.128-.946 2.128-2.237 0-1.29-.954-2.23-2.128-2.23-1.18-.006-2.128.94-2.128 2.23zM49.658 50.723v-3.968h1v3.782c0 1.038.664 1.498 1.353 1.498.678 0 1.347-.446 1.347-1.498v-3.782h1v3.968c0 1.545-1.18 2.277-2.346 2.277-1.165 0-2.352-.74-2.352-2.277zM55.658 46.755h2.12c2.023 0 3.077 1.458 3.077 2.983 0 1.525-1.034 3.123-3.22 3.123h-1.97v-6.105h-.007zm1 .92v4.273h1.062c1.42 0 2.12-1.045 2.12-2.137 0-1.07-.695-2.136-2.067-2.136H56.66zM66.69 53c-1.545 0-3.01-1.118-3.01-3.156 0-2.11 1.564-3.23 3.168-3.23.948 0 1.817.374 2.38 1.046l-.676.733c-.437-.56-1.067-.826-1.737-.826-1.1 0-2.12.752-2.12 2.237 0 1.465.987 2.244 2.074 2.244.808 0 1.583-.453 1.968-1.385l.802.44C68.983 52.38 67.843 53 66.69 53zM76.532 49.81c0 1.805-1.365 3.197-3.142 3.197-1.783 0-3.142-1.385-3.142-3.196 0-1.817 1.366-3.195 3.142-3.195 1.777 0 3.142 1.378 3.142 3.196zm-5.276 0c0 1.292.948 2.238 2.128 2.238 1.173 0 2.127-.946 2.127-2.237 0-1.29-.953-2.23-2.126-2.23-1.18-.006-2.128.94-2.128 2.23zM79.96 50.01h-2.566v.893h2.566v-.892zM87.12 49.81c0 1.805-1.365 3.197-3.142 3.197-1.783 0-3.142-1.385-3.142-3.196 0-1.817 1.365-3.195 3.142-3.195s3.142 1.378 3.142 3.196zm-5.276 0c0 1.292.948 2.238 2.128 2.238 1.173 0 2.128-.946 2.128-2.237 0-1.29-.955-2.23-2.128-2.23-1.18-.006-2.128.94-2.128 2.23zM94.167 52.86h-.955l-1.385-4.36-1.386 4.36h-.947l-2.028-6.105h1.1l1.373 4.394 1.372-4.395h1.034l1.38 4.394 1.364-4.395h1.1l-2.02 6.105zM96.97 46.755h1.002l3.05 4.32v-4.32h1v6.105h-1l-3.05-4.28v4.28h-1v-6.105zM104.41 47.674v1.684h2.06v.913h-2.06v1.678h2.65v.913h-3.652v-6.105h3.58v.92h-2.58zM111.467 52.86l-1.392-2.523h-.808v2.523h-1v-6.105h2.16c1.2 0 1.836.865 1.836 1.738 0 .68-.37 1.37-1.12 1.678l1.544 2.697h-1.22v-.006zm-.212-4.327c0-.433-.338-.866-.974-.866h-1.007v1.758h1.008c.644 0 .975-.446.975-.892zM121.677 49.81c0 1.805-1.366 3.197-3.142 3.197-1.783 0-3.142-1.385-3.142-3.196 0-1.817 1.365-3.195 3.142-3.195 1.783 0 3.142 1.378 3.142 3.196zm-5.27 0c0 1.292.948 2.238 2.128 2.238 1.173 0 2.128-.946 2.128-2.237 0-1.29-.955-2.23-2.128-2.23-1.18-.006-2.128.94-2.128 2.23zM123.805 52.86h-.994v-6.105h3.58v.92h-2.585v1.677h2.062v.92h-2.062v2.59zM130.99 46.755h-1v6.105h1v-6.105zM133.384 47.674v1.684h2.055v.913h-2.056v1.678h2.645v.913h-3.647v-6.105h3.58v.92h-2.58zM138.25 46.755v5.193h2.545v.913h-3.547v-6.105h1zM143.52 52.86h-1v-5.186h-1.99v-.92h4.98v.92h-1.99v5.187zM148.128 47.48c-.524 0-.968.287-.968.866 0 .64.557.872 1.206 1.092.902.306 1.87.586 1.87 1.75 0 1.213-1.028 1.82-2.148 1.82-.776 0-1.59-.288-2.188-.894l.663-.792a2.032 2.032 0 0 0 1.578.766c.565 0 1.068-.246 1.068-.786 0-.566-.563-.76-1.213-.992-.79-.286-1.816-.646-1.816-1.904 0-1.26 1.04-1.79 2.014-1.79.67 0 1.293.272 1.73.698l-.537.7c-.318-.34-.842-.534-1.26-.534z" fill="#474A57"/><path d="M85.477.666v30.728" stroke="#9A9EAD" stroke-width="2.009" stroke-miterlimit="10" stroke-linecap="round"/><path d="M27.014 19.716c-1.472-2.044-3.15-2.89-3.15-2.89-1.663-.986-4.003-.886-4.003-.886a3.09 3.09 0 0 1-4.15 1.565c-1.815 2.384-1.636 4.368-1.623 4.5.106 3.064 3.05 9.376 14.842 9.396.033-.26 1.014-7.83-1.916-11.684z" fill="#0086F8"/><path d="M17.46 3.702C14.18.486 8.12-.698.34 2.777c.02.086 2.34 10.007 12.78 11.585h.027c.232.014.498.033.79.067a3.1 3.1 0 0 1 3.088-2.858c.338 0 .71.06 1.035.167 3.003-4.59-.226-7.712-.597-8.038z" fill="#FF8300"/><path d="M15.71 17.505a3.1 3.1 0 0 1-1.77-3.07c-.927-.106-1.603-.093-1.603-.093-3.328-.013-6.358 1.592-7.57 2.584C.383 20.368 0 26.008 0 26.008c.232.026 7.98 1.065 12.688-3.616a9.182 9.182 0 0 0 1.286-1.618s.126-.2.325-.532c.218-.76.63-1.712 1.41-2.737z" fill="#51C21A"/><path d="M66.682 7.917c-2.294 0-4.23.972-5.39 2.524v-.76a1.77 1.77 0 0 0-1.763-1.763 1.77 1.77 0 0 0-1.764 1.764v19.916a1.8 1.8 0 0 0 1.796 1.79 1.8 1.8 0 0 0 1.797-1.79v-7.01c1.417 1.624 3.486 2.336 5.395 2.336 4.004 0 7.915-2.983 7.915-8.536-.007-5.646-4.177-8.47-7.988-8.47zm-.385 13.73c-2.453 0-4.945-1.785-4.945-5.32 0-3.476 2.453-5.194 4.912-5.194 2.426 0 4.846 1.685 4.846 5.227 0 3.502-2.36 5.286-4.813 5.286zM46.166 24.922c2.294 0 4.23-.972 5.39-2.523v.758a1.77 1.77 0 0 0 1.763 1.764 1.77 1.77 0 0 0 1.762-1.764V3.243a1.8 1.8 0 0 0-1.797-1.79 1.8 1.8 0 0 0-1.796 1.79v7.01C50.07 8.63 48 7.918 46.092 7.918c-4.01 0-7.915 2.983-7.915 8.536.006 5.646 4.176 8.47 7.988 8.47zm.39-13.73c2.454 0 4.946 1.785 4.946 5.32 0 3.476-2.453 5.194-4.912 5.194-2.426 0-4.846-1.684-4.846-5.227 0-3.503 2.353-5.287 4.813-5.287zM34.292.666c-1.45 0-2.552 1.105-2.552 2.563 0 1.458 1.1 2.563 2.552 2.563s2.586-1.105 2.586-2.564c0-1.46-1.127-2.564-2.586-2.564zM34.293 7.917c-.98 0-1.797.806-1.797 1.79v13.478a1.8 1.8 0 0 0 1.79 1.73 1.8 1.8 0 0 0 1.79-1.73V9.698c.013-.977-.802-1.783-1.783-1.783z" fill="#333F48"/><path d="M102.306 1.525h-5.953v23.37h5.953V1.525zM104.766 1.525h17.99V6.3H110.72v4.294h12.004v4.674H110.72v4.847h12.103v4.774h-18.057V1.524zM125.06 1.525h5.985v18.297h10.938v5.067H125.06V1.524zM144.216 6.266h-6.67v-4.74h19.318v4.74h-6.695V24.89h-5.954V6.265zM162.837 17.125c.066 2.664 1.55 4.03 4.402 4.03 2.49-.002 3.817-.88 3.817-2.312 0-.78-.358-1.365-.902-1.658-1.392-.712-4.043-1.172-7.444-2.537-3.367-1.33-5.11-3.575-5.11-6.47 0-4.39 3.46-7.312 9.287-7.312 5.662 0 9.13 3.056 9.13 7.703h-5.603c-.26-2.178-1.518-3.183-3.918-3.183-2.008 0-3.235.945-3.235 2.11 0 1.758 1.81 2.11 5.47 3.316 2.685.88 4.627 1.492 5.76 2.404 1.52 1.238 2.295 2.923 2.295 4.94 0 4.548-3.593 7.378-10.13 7.378-6.052 0-9.188-2.764-9.546-8.416h5.727v.005z" fill="#E31837"/><path d="M175.71 1.93h-.774v-.465h2.088v.466h-.77v2.165h-.543V1.93zM177.37 1.465h.8l.518 1.997.51-1.997h.803v2.63h-.503V1.97l-.53 2.125h-.55l-.537-2.124v2.125h-.51v-2.63z" fill="#231F20"/></g><defs><clipPath id="clip0"><path fill="#fff" d="M0 0h180v53H0z"/></clipPath></defs></svg>