<svg width="133" height="39" viewBox="0 0 133 39" fill="none" xmlns="http://www.w3.org/2000/svg"><g clip-path="url(#clip0)"><path d="M9.47 1.028H0v36.944h9.47V1.028zM13.37 1.028H41.98v7.55H22.84v6.783h19.086v7.4H22.84v7.66h19.243v7.552H13.37V1.028zM45.633 1.028h9.522v28.926h17.39v8.018H45.633V1.028zM76.096 8.527H65.498v-7.5h30.72v7.5H85.56v29.445h-9.464V8.527zM105.707 25.69c.104 4.217 2.47 6.372 7 6.372 3.963 0 6.07-1.386 6.07-3.65 0-1.23-.568-2.156-1.44-2.618-2.212-1.132-6.434-1.85-11.838-4.01-5.352-2.107-8.13-5.65-8.13-10.224C97.377 4.627 102.88 0 112.14 0c9.002 0 14.51 4.83 14.51 12.178h-8.898c-.416-3.443-2.42-5.038-6.225-5.038-3.193 0-5.143 1.49-5.143 3.34 0 2.773 2.88 3.34 8.695 5.245 4.268 1.386 7.357 2.362 9.156 3.8 2.42 1.954 3.65 4.628 3.65 7.81 0 7.194-5.71 11.665-16.104 11.665-9.62 0-14.614-4.367-15.18-13.31h9.105z" fill="#E31837"/><path d="M126.183 1.677h-1.238V.935h3.318v.742h-1.227V5.09h-.853V1.676zM128.814.935h1.27l.826 3.162.817-3.162H133V5.09h-.805V1.74l-.843 3.35h-.88l-.85-3.35v3.35h-.808V.934z" fill="#000"/></g><defs><clipPath id="clip0"><path fill="#fff" d="M0 0h133v39H0z"/></clipPath></defs></svg>