<svg width="1024" height="750" viewBox="0 0 1024 750" fill="none" xmlns="http://www.w3.org/2000/svg"><path d="M885.83 435.46c-1.29-24.105-6.025-47.78-15.494-69.73-9.47-21.953-22.813-41.323-39.17-58.11-37.447-39.6-88.24-64.134-141.612-74.465-15.065-2.582-30.56-5.165-45.626-6.026-30.56-1.723-58.54-15.496-79.63-37.448l-.43-.43c-11.622-12.053-24.535-21.953-38.31-31.853-29.27-20.23-62.842-35.727-98.138-42.183-18.51-3.444-37.448-4.305-55.956-3.874-5.596.43-11.622.86-17.218 1.72-18.94 3.445-38.308 5.597-57.247 12.054-19.8 7.317-39.17 16.356-57.25 27.547-36.585 22.813-68.007 52.513-89.96 89.1-12.05 20.23-19.8 41.322-27.547 63.274-2.582 7.747-4.735 15.065-6.026 23.243-3.443 20.23-5.596 41.323-4.735 61.553.86 25.395 3.874 51.652 12.483 75.326 5.165 14.633 12.052 29.268 18.508 43.042 9.9 21.952 25.826 40.03 41.322 58.108 15.065 17.648 32.283 33.144 52.082 46.057 39.17 24.965 85.226 39.17 131.713 45.195 317.23 44.765 433.446-55.956 453.246-74.034 18.94-17.218 34.434-40.03 45.626-62.843 12.913-27.118 20.23-56.387 19.37-85.226z" fill="#F2E4E3"/><path d="M692.567 147.07H342.194v458.84h350.373V147.07z" fill="#FA0"/><path d="M650.815 197.43H386.53v143.334h264.285V197.43z" fill="#F6932A"/><path d="M110.62 540.054l45.627-45.195 45.626 45.194-45.626 45.196-45.626-45.196z" fill="#E5999D"/><path d="M776.932 153.525l27.978-27.978 27.978 27.978-27.978 27.978-27.978-27.978z" fill="#ECBFC0"/><path d="M845.8 237.03l46.918-45.627 45.626 46.918-46.917 45.626L845.8 237.03z" fill="#E5999D"/><path d="M525.99 382.085h-138.6v12.913h138.6v-12.913zM584.958 413.076H387.39v12.913h197.568v-12.914z" fill="#F2892A"/><path d="M584.958 443.207H387.39v12.913h197.568v-12.913z" fill="#F6932A"/><path d="M201.274 273.59l-35 35.002 21.304 21.305 35.002-35-21.306-21.306z" fill="#fff"/><path d="M186.808 328.712l194.986 195.416 40.89 14.205 8.61-8.61-14.204-40.89-195.417-194.986-34.865 34.865z" fill="#DD3C3C"/></svg>