<svg width="1024" height="750" viewBox="0 0 1024 750" fill="none" xmlns="http://www.w3.org/2000/svg"><path d="M883.248 351.955c-7.748-23.244-18.94-46.917-34.865-66.287-16.356-20.23-37.448-36.587-60.26-48.64-22.383-12.05-46.057-20.23-71.022-22.38-12.05-1.293-24.534-1.293-36.586-.432-27.548 2.152-55.956-5.165-80.92-19.8-5.166-3.013-10.332-6.026-15.497-8.608-26.256-13.774-54.665-22.813-82.213-32.713-6.887-2.583-14.204-4.305-21.52-5.596-21.523-4.305-43.475-6.888-64.997-8.18-46.486-2.582-93.404 2.583-136.016 19.37-21.52 8.18-40.46 19.8-58.108 33.574-17.648 14.204-36.156 28.41-49.07 46.917-8.608 12.053-17.647 24.106-24.964 37.02-12.052 20.66-18.94 44.333-23.674 68.007-4.305 18.078-5.596 37.878-5.165 57.248.43 7.747.86 15.065 2.58 22.382 4.306 21.522 8.61 43.043 17.65 63.704 16.355 37.45 42.18 70.592 74.033 97.71 16.357 13.343 33.574 25.395 52.083 35.295 17.648 9.04 36.156 14.635 54.234 20.66 5.596 1.722 11.192 3.014 16.787 4.735 18.51 3.444 37.018 6.457 55.526 6.026 134.295 7.748 191.543-58.108 351.233-95.125 159.26-37.016 149.79-177.768 140.752-204.885z" fill="#F2E4E3"/><path d="M305.607 239.612v309.912H637.47l81.353-64.996V239.612H305.607z" fill="#FA0"/><path d="M637.04 549.523v-55.956l81.783-8.61-81.782 64.566z" fill="#EA9600"/><path opacity=".2" d="M558.272 322.686H377.06V335.6h181.212v-12.914z" fill="#DD3C3C"/><path opacity=".3" d="M636.61 372.185H377.06v12.913h259.55v-12.913z" fill="#DD3C3C"/><path opacity=".2" d="M474.768 422.116H377.06v12.913h97.708v-12.914z" fill="#DD3C3C"/><path d="M742.497 571.476l51.652-51.652 51.65 51.652-51.65 51.652-51.653-51.652z" fill="#E7999B"/><path d="M218.37 83.063l-34.132 26.226 85.76 111.615 34.133-26.226L218.37 83.06z" fill="#EDBEBF"/><path d="M164.265 207.324l-15.917 39.99 86.382 34.383 15.917-39.99-86.382-34.383z" fill="#E7999B"/><path d="M763.157 446.65l-94.264-95.556 34.004-33.143 56.387 57.68 121.812-151.083 36.587 29.7L763.157 446.65z" fill="#DD3C3C"/><path d="M593.998 132.004l27.978-27.98 27.978 27.98-27.978 27.978-27.978-27.978z" fill="#ECBFC0"/></svg>