<svg width="1024" height="750" viewBox="0 0 1024 750" fill="none" xmlns="http://www.w3.org/2000/svg"><g clip-path="url(#clip0)"><path opacity=".2" d="M984.88 309.277c-24.79-107.394-64.332-172.535-198.304-244.13C652.603-6.45 326.82-8.212 253.046 8.806c-73.774 17.02-95.61 23.475-138.104 56.34-61.38 48.12-89.71 129.107-87.938 213.027 2.36 111.502 64.33 204.812 145.186 262.324 31.28 22.3 70.232 35.21 106.824 40.493 17.706 2.348 35.41 4.11 53.117 7.043 14.756 14.67 28.33 30.517 42.494 45.775 28.92 31.103 62.56 59.86 99.742 76.29.59 0 1.18.588 1.77.588 19.477 15.845 40.724 27.582 63.74 30.516 53.118 5.87 109.186 13.498 162.303 5.87 70.23-9.978 130.43-34.04 189.45-83.335 15.934-13.497 30.1-29.342 42.493-46.948 69.637-99.766 74.957-201.292 50.756-307.513z" fill="#A59D95"/><path d="M484.397 732.393c166.236 0 300.996-134 300.996-299.295 0-165.297-134.76-299.296-300.996-299.296-166.235 0-300.996 134-300.996 299.296s134.762 299.295 300.997 299.295z" fill="#E31837"/><path d="M484.395 642.604c116.365 0 210.697-93.8 210.697-209.507 0-115.708-94.332-209.507-210.697-209.507-116.364 0-210.697 93.8-210.697 209.507 0 115.707 94.333 209.507 210.697 209.507z" fill="#F7941E"/><path d="M484.394 556.337c68.45 0 123.94-55.176 123.94-123.24 0-68.063-55.49-123.24-123.94-123.24-68.45 0-123.94 55.177-123.94 123.24 0 68.064 55.49 123.24 123.94 123.24z" fill="#E31837"/><path fill-rule="evenodd" clip-rule="evenodd" d="M484.396 400.715c-18.134 0-32.666 14.59-32.666 32.382 0 17.79 14.532 32.383 32.666 32.383 18.135 0 32.666-14.592 32.666-32.383 0-17.79-14.53-32.382-32.666-32.382zm-67.666 32.382c0-37.307 30.39-67.382 67.666-67.382 37.278 0 67.666 30.075 67.666 67.382 0 37.308-30.388 67.383-67.666 67.383-37.277 0-67.666-30.075-67.666-67.383z" fill="#fff"/><path fill-rule="evenodd" clip-rule="evenodd" d="M791.204 181.166L479.856 454.86l-23.108-26.286L768.096 154.88l23.108 26.286z" fill="#fff"/><path d="M900.48 121.477l-71.414-3.52-4.13-71.597-77.316 76.878v73.357l-1.77 1.76h1.77v2.348l1.77-2.348h73.774l77.315-76.878z" fill="#F7941E"/></g><defs><clipPath id="clip0"><path fill="#fff" d="M0 0h1024v750H0z"/></clipPath></defs></svg>