<svg width="1024" height="750" viewBox="0 0 1024 750" fill="none" xmlns="http://www.w3.org/2000/svg"><g clip-path="url(#clip0)"><path opacity=".2" d="M981.722 309.284C957.068 201.89 917.738 136.748 784.488 65.152S327.21-8.205 253.835 8.814c-73.376 17.02-95.095 23.474-137.36 56.338C55.427 113.274 27.25 194.26 29.01 278.18c2.35 111.503 63.985 204.813 144.405 262.324 31.11 22.3 69.853 35.212 106.248 40.493 17.61 2.348 35.22 4.108 52.83 7.043 14.675 14.67 28.177 30.516 42.265 45.774 28.763 31.103 62.222 59.86 99.204 76.29.587 0 1.174.588 1.76.588 19.372 15.845 40.504 27.582 63.397 30.517 52.83 5.867 108.596 13.496 161.426 5.867 69.854-9.976 129.728-34.037 188.43-83.333 15.848-13.498 29.936-29.343 42.264-46.95 69.27-99.764 74.55-201.29 50.482-307.51z" fill="#A59D95"/><path d="M799.74 151.408H350.68c-31.112 0-56.353 25.235-56.353 56.338v285.21l424.992.588 136.772 83.333V207.16c0-30.517-25.242-55.752-56.353-55.752z" fill="#E31837"/><path fill-rule="evenodd" clip-rule="evenodd" d="M376.617 302.922H777.91v35H376.616v-35zM535.108 351.044h242.8v35h-242.8v-35z" fill="#fff"/><path d="M141.118 657.277v-205.4c0-28.755 23.48-52.816 52.243-52.816H412.9c28.765 0 52.245 23.476 52.245 52.23v104.462c0 28.755-23.48 52.23-52.244 52.23H221.538l-80.42 49.295z" fill="#BE162F" stroke="#BE162F" stroke-width="5" stroke-miterlimit="10" stroke-linecap="square"/><path fill-rule="evenodd" clip-rule="evenodd" d="M182.905 446.114h168.25v35h-168.25v-35zM182.905 486.024h230.473v35H182.905v-35zM182.905 528.273h119.53v35h-119.53v-35z" fill="#fff"/></g><defs><clipPath id="clip0"><path fill="#fff" d="M0 0h1024v750H0z"/></clipPath></defs></svg>