<svg width="1024" height="750" viewBox="0 0 1024 750" fill="none" xmlns="http://www.w3.org/2000/svg"><path opacity=".2" d="M65.31 213.362C276.796-232.17 1320.732 93.456 922.37 526.646 670.468 801.136-212.37 798.198 65.31 213.362z" fill="#A59D95"/><path d="M351.192 750l-178.676-54.663V567.202h178.676V750z" fill="#F7941E"/><path d="M447.854 427.313H191.85v209.835h256.004V427.313z" fill="#F7941E"/><path d="M509.95 524.295s-60.34-169.867-68.542-184.56c-35.15-61.13-101.933-102.274-178.09-99.335-103.105 2.94-187.463 86.99-191.564 190.44-4.1 113.44 86.116 206.308 198.008 206.308 78.5 0 146.456-45.847 178.09-112.853h62.098z" fill="#F7941E"/><path fill-rule="evenodd" clip-rule="evenodd" d="M419.644 561.124c-.008.003-.016.006 5.36 16.66 5.38 16.652 5.37 16.655 5.36 16.658l-.017.006-.04.013-.096.03a59.218 59.218 0 0 1-.973.29 65.59 65.59 0 0 1-2.31.613 89.848 89.848 0 0 1-7.767 1.533 103.305 103.305 0 0 1-25.683.696c-20.976-2.077-47.272-11.466-68.04-39.366l28.076-20.9c13.796 18.535 30.265 24.134 43.413 25.437a68.32 68.32 0 0 0 16.917-.46 55.278 55.278 0 0 0 4.726-.927 28.63 28.63 0 0 0 1.184-.317l-.01.003c-.004 0-.01.003-.018.005l-.04.013-.027.01-.016.004z" fill="#fff"/><path d="M688.627 521.944l178.676-54.075V339.145H688.627v182.798z" fill="#E31837"/><path d="M591.77 409.366h256.006V199.53H591.77v209.836z" fill="#E31837"/><path d="M529.867 296.238s60.34-169.866 68.542-184.56C633.557 50.547 700.34 9.404 776.5 12.342c103.104 2.94 187.462 86.99 191.563 190.44 4.1 112.852-86.116 206.308-197.422 206.308-78.5 0-146.455-45.845-178.09-112.852h-62.683z" fill="#E31837"/><path fill-rule="evenodd" clip-rule="evenodd" d="M609.45 366.386c-.007-.003-.016-.006 5.362-16.66 5.377-16.652 5.37-16.655 5.36-16.657l-.014-.006-.027-.01-.04-.012c-.02-.006-.03-.01-.028-.008.004 0 .052.015.144.04.183.054.535.15 1.042.276 1.017.25 2.633.605 4.726.926a68.27 68.27 0 0 0 16.917.46c13.15-1.3 29.618-6.9 43.414-25.435l28.076 20.9c-20.768 27.9-47.064 37.29-68.04 39.366a103.3 103.3 0 0 1-25.683-.696 89.77 89.77 0 0 1-7.767-1.533 65.59 65.59 0 0 1-2.31-.61 66.1 66.1 0 0 1-.725-.215l-.25-.077-.095-.03-.04-.013-.02-.006z" fill="#fff"/></svg>