<svg width="19" height="22" viewBox="0 0 19 22" fill="none" xmlns="http://www.w3.org/2000/svg">
<path d="M14.345 4.50127H15.4286H15.6052C15.6409 4.50127 15.6735 4.50127 15.7092 4.50556C15.7225 4.50728 15.7626 4.50385 15.7722 4.51244C15.7574 4.49697 15.698 4.49697 15.7485 4.51072C15.793 4.52361 15.8376 4.5322 15.8821 4.54681C15.8969 4.55369 15.9823 4.57088 15.9875 4.58978C15.9815 4.57259 15.9147 4.54853 15.9786 4.58806C15.9971 4.59838 16.0157 4.60955 16.032 4.62072C16.0632 4.63963 16.0951 4.66369 16.1263 4.68517C16.1337 4.68947 16.1767 4.71783 16.1767 4.72642C16.1381 4.69033 16.1285 4.68174 16.1485 4.70236C16.1574 4.71095 16.1671 4.71955 16.1767 4.72986C16.2324 4.78572 16.2806 4.84587 16.3289 4.91033C16.3823 4.97908 16.2992 4.84845 16.3229 4.90173C16.3318 4.92064 16.3467 4.94041 16.3563 4.96017C16.3786 4.99884 16.3986 5.03923 16.4172 5.0822C16.4209 5.0908 16.4528 5.15267 16.4484 5.15955C16.4484 5.16126 16.415 5.05642 16.4395 5.13548C16.4528 5.18017 16.4677 5.22572 16.4766 5.27298C16.4855 5.30908 16.4914 5.34861 16.4988 5.38642C16.5196 5.48525 16.4929 5.28759 16.5003 5.38814C16.5018 5.41822 16.504 5.44829 16.5063 5.47579C16.5063 5.50158 16.5077 5.52478 16.5077 5.55142V5.68892V6.34634V8.80242V12.0439V15.1565V17.2533V17.64C16.5077 17.6933 16.504 17.7475 16.5003 17.8016C16.4966 17.8704 16.504 17.7758 16.504 17.7758C16.5077 17.7775 16.4951 17.8377 16.4929 17.8463C16.4855 17.8893 16.4766 17.9305 16.4647 17.9735C16.4588 17.9907 16.4558 18.0096 16.4499 18.0268C16.4461 18.0354 16.4439 18.0439 16.4409 18.0525C16.4261 18.0955 16.4298 18.0886 16.4499 18.0285C16.4573 18.0439 16.4038 18.1359 16.3942 18.1557C16.3734 18.1969 16.3519 18.2347 16.3289 18.2743C16.3007 18.3258 16.3437 18.27 16.3437 18.2554C16.3437 18.2682 16.3125 18.2983 16.3051 18.3086C16.2814 18.3413 16.2569 18.3705 16.2309 18.4014C16.2161 18.4186 16.2012 18.4341 16.1864 18.4487C16.1715 18.4642 16.1107 18.5003 16.1582 18.4762C16.2101 18.4521 16.1493 18.4831 16.1359 18.4917C16.1225 18.502 16.1077 18.5132 16.0951 18.5218C16.0595 18.5475 16.0246 18.569 15.9897 18.5905C15.9838 18.5948 15.9489 18.6163 15.9452 18.6146C15.9541 18.6214 16.0231 18.5819 15.9541 18.6077C15.9118 18.6249 15.8687 18.6421 15.8242 18.655C15.8079 18.6593 15.7908 18.6636 15.7759 18.6679C15.7685 18.6696 15.7596 18.6721 15.7522 18.6747C15.7188 18.6816 15.7188 18.6816 15.7522 18.6764C15.7596 18.6747 15.7685 18.6747 15.7759 18.6721C15.7596 18.6739 15.7425 18.6764 15.7255 18.679C15.7091 18.6807 15.6921 18.6807 15.6735 18.6833C15.655 18.6833 15.6364 18.6833 15.6201 18.685H15.5941H15.4642H14.9209H12.9467H10.2585H7.42183H5.00085H3.55507H3.41553H3.38436H3.37842H3.33983C3.31757 18.685 3.29753 18.6833 3.27452 18.6807C3.26116 18.679 3.24854 18.679 3.23593 18.6764C3.20624 18.6721 3.2196 18.6747 3.27155 18.6833C3.20475 18.6507 3.12311 18.6472 3.05484 18.6189C3.04742 18.6172 2.9732 18.5776 3.03109 18.6103C3.08898 18.6404 3.01476 18.6 3.00882 18.5974C2.97171 18.5759 2.93609 18.5544 2.90343 18.5286C2.88265 18.5132 2.86261 18.496 2.84257 18.4814C2.79804 18.447 2.84851 18.4986 2.8589 18.4986C2.83812 18.4986 2.78097 18.4212 2.76761 18.4057C2.74386 18.38 2.72159 18.3525 2.70081 18.3241C2.69339 18.3155 2.65257 18.2725 2.6548 18.2597C2.6637 18.2751 2.67335 18.2872 2.683 18.3026C2.67409 18.2872 2.66445 18.2725 2.6548 18.2579C2.63995 18.2339 2.53456 18.062 2.54941 18.0362C2.54792 18.0379 2.57761 18.1222 2.55831 18.0603C2.55089 18.0328 2.54198 18.007 2.53456 17.9786C2.5212 17.934 2.5123 17.8858 2.50339 17.8394C2.50191 17.8308 2.49968 17.8205 2.49745 17.8119C2.49152 17.7733 2.49152 17.7733 2.49597 17.8119C2.49745 17.8205 2.49745 17.8308 2.49968 17.8394C2.4982 17.8205 2.49597 17.8008 2.49374 17.781C2.49003 17.7397 2.49003 17.7019 2.49003 17.6607V17.6538C2.48855 17.2516 2.49003 16.8503 2.49003 16.4507V13.7506V10.4704V7.49534V5.71816V5.56519V5.54371C2.49003 5.51363 2.49003 5.48355 2.49152 5.45347C2.493 5.43457 2.493 5.4148 2.49523 5.39332C2.50265 5.29449 2.48187 5.46894 2.49374 5.40621C2.5123 5.31168 2.53976 5.22144 2.56054 5.12949C2.5739 5.07106 2.51972 5.22402 2.55683 5.1398C2.56425 5.12262 2.57167 5.10543 2.57909 5.08824C2.59765 5.04699 2.61769 5.0066 2.63995 4.96621C2.64886 4.95074 2.65851 4.93613 2.66816 4.91894C2.71046 4.83988 2.62585 4.97051 2.66073 4.92754C2.69191 4.89145 2.71863 4.8502 2.7498 4.8141C2.77577 4.78402 2.80323 4.75566 2.82995 4.72816C2.88339 4.6723 2.82105 4.72387 2.82105 4.73504C2.82105 4.73332 2.85445 4.70754 2.85964 4.70238C2.89304 4.6766 2.92792 4.65082 2.96355 4.62933C2.97839 4.62074 2.99324 4.61215 3.00585 4.60355C3.0207 4.59496 3.03554 4.58637 3.05039 4.57949C3.03554 4.58636 3.0207 4.59496 3.00808 4.60097C3.01179 4.58551 3.11199 4.55801 3.12535 4.55371C3.16097 4.54082 3.19808 4.53222 3.23519 4.52363C3.26488 4.51676 3.31535 4.52191 3.22406 4.52363C3.24038 4.52363 3.25745 4.51933 3.27452 4.51676C3.31015 4.51246 3.34503 4.51246 3.37992 4.51246H3.52242H4.55554C4.74999 4.51246 4.93554 4.3148 4.92663 4.08278C4.91772 3.85074 4.76335 3.6531 4.55554 3.6531H3.47566C3.20475 3.6531 2.95019 3.70036 2.70008 3.82669C2.36609 3.99427 2.0707 4.3234 1.91484 4.70497C1.78719 5.01865 1.74414 5.34522 1.74414 5.68637V6.34637V8.84711V12.1368V15.2777V17.3316V17.6582C1.75008 18.5158 2.26738 19.3082 2.99993 19.499C3.35025 19.5918 3.74062 19.5505 4.09835 19.5505H6.11711H8.87058H11.7354H14.1475H15.5057C15.7803 19.5505 16.046 19.5076 16.3013 19.3769C16.8861 19.0804 17.2513 18.3801 17.255 17.6496C17.2565 17.2199 17.255 16.7902 17.255 16.3605V13.5865V10.235V7.28309V5.63738C17.255 5.21802 17.1748 4.80552 16.9596 4.46003C16.7228 4.08189 16.3933 3.8026 16.0051 3.69518C15.8033 3.63932 15.6044 3.64189 15.398 3.64189H14.3441C14.1497 3.64189 13.9641 3.83955 13.973 4.07158C13.9827 4.30361 14.1371 4.50126 14.3449 4.50126L14.345 4.50127Z" fill="white"/>
<path d="M7.70239 4.50121H8.927H10.8901H11.3391C11.5336 4.50121 11.7191 4.30355 11.7102 4.07153C11.7013 3.83949 11.5469 3.64185 11.3391 3.64185H10.1145H8.15142H7.70239C7.50795 3.64185 7.32239 3.8395 7.3313 4.07153C7.34021 4.30356 7.49458 4.50121 7.70239 4.50121Z" fill="white"/>
<path d="M5.76312 2.88915V5.61759V6.0043C5.76312 6.22945 5.93383 6.4443 6.13421 6.43398C6.3346 6.42367 6.5053 6.24492 6.5053 6.0043V3.27586V2.88915C6.5053 2.664 6.3346 2.44915 6.13421 2.45946C5.9316 2.47064 5.76312 2.64853 5.76312 2.88915Z" fill="white"/>
<path d="M2.12634 9.47456H2.52118H3.59141H5.1797H7.10934H9.23202H11.3657H13.3638H15.0448H16.2605C16.452 9.47456 16.6427 9.47885 16.8335 9.47456H16.8572C17.0517 9.47456 17.2372 9.2769 17.2283 9.04487C17.2194 8.81284 17.065 8.61519 16.8572 8.61519H16.4624H15.3922H13.8039H11.8742H9.75155H7.61785H5.61981H3.93875H2.72306C2.53157 8.61519 2.34083 8.61089 2.15009 8.61519H2.12634C1.9319 8.61519 1.74634 8.81285 1.75525 9.04487C1.7649 9.27691 1.91853 9.47456 2.12634 9.47456Z" fill="white"/>
<path d="M5.29034 6.46669H6.74874H6.96027C7.15472 6.46669 7.34027 6.26904 7.33136 6.03701C7.32245 5.80498 7.16808 5.60733 6.96027 5.60733H5.50187H5.29034C5.0959 5.60733 4.91034 5.80499 4.91925 6.03701C4.92816 6.26905 5.08179 6.46669 5.29034 6.46669Z" fill="white"/>
<path d="M12.4427 2.92168V5.65012V6.03683C12.4427 6.26198 12.6135 6.47683 12.8138 6.46652C13.0142 6.4562 13.1849 6.27745 13.1849 6.03683V3.30839V2.92168C13.1849 2.69653 13.0142 2.48168 12.8138 2.492C12.6112 2.50231 12.4427 2.68106 12.4427 2.92168Z" fill="white"/>
<path d="M11.97 6.46669H13.4284H13.64C13.8344 6.46669 14.02 6.26904 14.011 6.03701C14.0021 5.80498 13.8478 5.60733 13.64 5.60733H12.1816H11.97C11.7756 5.60733 11.59 5.80499 11.5989 6.03701C11.6078 6.26905 11.7622 6.46669 11.97 6.46669Z" fill="white"/>
<path d="M4.65942 12.7401H5.7356C5.93005 12.7401 6.1156 12.5424 6.10669 12.3104C6.09778 12.0784 5.94341 11.8807 5.7356 11.8807H4.65942C4.46498 11.8807 4.27942 12.0784 4.28833 12.3104C4.29724 12.5425 4.45162 12.7401 4.65942 12.7401Z" fill="white"/>
<path d="M8.90784 12.7401H9.98401C10.1785 12.7401 10.364 12.5424 10.3551 12.3104C10.3462 12.0784 10.1918 11.8807 9.98401 11.8807H8.90784C8.71339 11.8807 8.52784 12.0784 8.53675 12.3104C8.54639 12.5425 8.70003 12.7401 8.90784 12.7401Z" fill="white"/>
<path d="M13.1575 12.7401H14.2336C14.4281 12.7401 14.6137 12.5424 14.6047 12.3104C14.5958 12.0784 14.4415 11.8807 14.2336 11.8807H13.1575C12.963 11.8807 12.7775 12.0784 12.7864 12.3104C12.7953 12.5425 12.9497 12.7401 13.1575 12.7401Z" fill="white"/>
<path d="M4.65942 16.2636H5.7356C5.93005 16.2636 6.1156 16.0659 6.10669 15.8339C6.09778 15.6019 5.94341 15.4042 5.7356 15.4042H4.65942C4.46498 15.4042 4.27942 15.6019 4.28833 15.8339C4.29724 16.0659 4.45162 16.2636 4.65942 16.2636Z" fill="white"/>
<path d="M8.90784 16.2636H9.98401C10.1785 16.2636 10.364 16.0659 10.3551 15.8339C10.3462 15.6019 10.1918 15.4042 9.98401 15.4042H8.90784C8.71339 15.4042 8.52784 15.6019 8.53675 15.8339C8.54639 16.0659 8.70003 16.2636 8.90784 16.2636Z" fill="white"/>
</svg>
