<svg width="49" height="44" viewBox="0 0 49 44" fill="none" xmlns="http://www.w3.org/2000/svg">
<path d="M40.8313 25.9735C40.8313 26.2118 40.8159 26.4501 40.7799 26.6884C40.8005 26.5485 40.8159 26.4138 40.8365 26.274C40.7747 26.7091 40.6564 27.134 40.4866 27.5432C40.538 27.4189 40.5895 27.2946 40.641 27.1702C40.5175 27.4604 40.3682 27.7401 40.1933 28.0095C40.1779 28.0354 40.0647 28.2323 40.0389 28.2323C40.0698 28.2323 40.3219 27.88 40.1161 28.1287C40.0184 28.2478 39.9103 28.367 39.8022 28.4758C39.6942 28.5846 39.5758 28.6934 39.4575 28.7918C39.3597 28.8747 39.1591 28.9835 39.5604 28.7141C39.4884 28.7659 39.4163 28.8177 39.3392 28.8695C39.0767 29.0457 38.7989 29.1959 38.5056 29.3203C38.6291 29.2685 38.7526 29.2167 38.8761 29.1648C38.4696 29.3358 38.0528 29.4498 37.6154 29.5171C37.7544 29.4964 37.8881 29.4809 38.0271 29.4601C37.5537 29.5223 37.0803 29.5223 36.6069 29.4601C36.7459 29.4809 36.8796 29.4964 37.0186 29.5171C36.5863 29.455 36.1644 29.3358 35.7579 29.1648C35.8814 29.2167 36.0049 29.2685 36.1284 29.3203C35.8403 29.1959 35.5624 29.0457 35.2948 28.8695C35.2691 28.854 35.0736 28.74 35.0736 28.7141C35.0736 28.7452 35.4235 28.9991 35.1765 28.7918C35.0582 28.6934 34.9398 28.5846 34.8318 28.4758C34.7237 28.367 34.6156 28.2478 34.5179 28.1287C34.4356 28.0302 34.3275 27.8282 34.5951 28.2323C34.5436 28.1598 34.4922 28.0872 34.4407 28.0095C34.2658 27.7453 34.1165 27.4655 33.993 27.1702C34.0445 27.2946 34.096 27.4189 34.1474 27.5432C33.9776 27.134 33.8644 26.7143 33.7975 26.274C33.8181 26.4138 33.8335 26.5485 33.8541 26.6884C33.7924 26.2118 33.7924 25.7351 33.8541 25.2585C33.8335 25.3984 33.8181 25.5331 33.7975 25.673C33.8593 25.2378 33.9776 24.813 34.1474 24.4037C34.096 24.528 34.0445 24.6524 33.993 24.7767C34.1165 24.4866 34.2658 24.2068 34.4407 23.9374C34.4561 23.9115 34.5693 23.7146 34.5951 23.7146C34.5642 23.7146 34.3121 24.0669 34.5179 23.8183C34.6156 23.6991 34.7237 23.5799 34.8318 23.4711C34.9398 23.3623 35.0582 23.2535 35.1765 23.1551C35.2743 23.0722 35.4749 22.9634 35.0736 23.2328C35.1456 23.181 35.2177 23.1292 35.2948 23.0774C35.5573 22.9012 35.8351 22.751 36.1284 22.6267C36.0049 22.6785 35.8814 22.7303 35.7579 22.7821C36.1644 22.6111 36.5812 22.4971 37.0186 22.4298C36.8796 22.4505 36.7459 22.4661 36.6069 22.4868C37.0803 22.4246 37.5537 22.4246 38.0271 22.4868C37.8881 22.4661 37.7544 22.4505 37.6154 22.4298C38.0477 22.492 38.4696 22.6111 38.8761 22.7821C38.7526 22.7303 38.6291 22.6785 38.5056 22.6267C38.7937 22.751 39.0716 22.9012 39.3392 23.0774C39.3649 23.0929 39.5604 23.2069 39.5604 23.2328C39.5604 23.2017 39.2105 22.9479 39.4575 23.1551C39.5758 23.2535 39.6942 23.3623 39.8022 23.4711C39.9103 23.5799 40.0184 23.6991 40.1161 23.8183C40.1984 23.9167 40.3065 24.1187 40.0389 23.7146C40.0904 23.7872 40.1418 23.8597 40.1933 23.9374C40.3682 24.2016 40.5175 24.4814 40.641 24.7767C40.5895 24.6524 40.538 24.528 40.4866 24.4037C40.6564 24.813 40.7696 25.2326 40.8365 25.673C40.8159 25.5331 40.8005 25.3984 40.7799 25.2585C40.8159 25.4968 40.8313 25.7351 40.8313 25.9735C40.8365 26.7869 41.5363 27.564 42.375 27.5277C43.2085 27.4914 43.9237 26.8438 43.9186 25.9735C43.9083 24.6524 43.5224 23.2794 42.7454 22.2018C41.9016 21.0258 40.8005 20.1761 39.4421 19.6788C36.9723 18.7825 33.9467 19.6114 32.2899 21.6682C31.3792 22.7976 30.8543 24.0825 30.7308 25.5331C30.6228 26.8594 30.9727 28.2634 31.6622 29.398C32.3156 30.4756 33.2984 31.4185 34.4458 31.9469C35.8094 32.5686 37.2398 32.7551 38.7114 32.4598C41.7266 31.8589 43.898 29.0146 43.9186 25.9631C43.9237 25.1497 43.2034 24.3726 42.375 24.4089C41.5363 24.4555 40.8365 25.1031 40.8313 25.9735Z" fill="black"/>
<path d="M42.7352 32.3147C42.8587 32.3976 42.9821 32.4805 43.1056 32.5685C43.3372 32.7292 42.8278 32.3354 43.0285 32.5116C43.0851 32.5582 43.1416 32.6048 43.1982 32.6566C43.4298 32.8639 43.651 33.0866 43.8517 33.3198C43.8929 33.3664 44.0678 33.5943 43.8929 33.3664C43.7179 33.1384 43.8929 33.3716 43.9289 33.4182C44.0164 33.5425 44.0987 33.6669 44.1759 33.7964C44.3405 34.0658 44.4795 34.3456 44.603 34.6357C44.5515 34.5113 44.5 34.387 44.4486 34.2627C44.6544 34.7652 44.7985 35.2833 44.8757 35.8221C44.8551 35.6822 44.8396 35.5475 44.8191 35.4076C44.9065 36.0811 44.8808 36.7754 44.8808 37.454C44.8808 38.2933 44.8808 39.1326 44.8808 39.9719C44.8808 40.2361 44.8911 40.5055 44.8602 40.7646C44.8808 40.6247 44.8962 40.49 44.9168 40.3501C44.8911 40.5107 44.8499 40.6661 44.7882 40.8164C44.8396 40.692 44.8911 40.5677 44.9426 40.4434C44.8962 40.547 44.8499 40.6506 44.7882 40.7439C44.6956 40.8941 44.603 40.8837 44.8705 40.6454C44.8294 40.6817 44.7985 40.7283 44.7573 40.7698C44.747 40.7801 44.639 40.8889 44.6338 40.8837C44.6235 40.8734 45.0043 40.6351 44.7573 40.7801C44.6493 40.8423 44.5464 40.9045 44.428 40.9563C44.5515 40.9045 44.675 40.8527 44.7985 40.8008C44.6493 40.863 44.4949 40.9045 44.3354 40.9304C44.4743 40.9096 44.6081 40.8941 44.747 40.8734C44.217 40.9407 43.6562 40.8941 43.1262 40.8941C41.9788 40.8941 40.8313 40.8941 39.6839 40.8941C37.07 40.8941 34.4561 40.8941 31.8474 40.8941C31.2042 40.8941 30.5199 40.9563 29.8767 40.8734C30.0156 40.8941 30.1494 40.9096 30.2883 40.9304C30.1288 40.9045 29.9745 40.863 29.8253 40.8008C29.9487 40.8527 30.0722 40.9045 30.1957 40.9563C30.0928 40.9096 29.9899 40.863 29.8973 40.8008C29.7481 40.7076 29.7584 40.6143 29.9951 40.8837C29.959 40.8423 29.9127 40.8112 29.8716 40.7698C29.8613 40.7594 29.7532 40.6506 29.7584 40.6454C29.7687 40.6351 30.0053 41.0184 29.8613 40.7698C29.7995 40.661 29.7378 40.5573 29.6863 40.4382C29.7378 40.5625 29.7892 40.6869 29.8407 40.8112C29.7789 40.661 29.7378 40.5055 29.7121 40.3449C29.7326 40.4848 29.7481 40.6195 29.7687 40.7594C29.6966 40.174 29.7481 39.5523 29.7481 38.9617C29.7481 38.1638 29.7481 37.366 29.7481 36.5629C29.7481 36.1744 29.7584 35.7858 29.8098 35.4024C29.7892 35.5423 29.7738 35.677 29.7532 35.8169C29.8304 35.2781 29.9745 34.76 30.1803 34.2575C30.1288 34.3818 30.0774 34.5062 30.0259 34.6305C30.1443 34.3507 30.2781 34.0813 30.4376 33.8223C30.5147 33.6928 30.5971 33.5684 30.6845 33.4441C30.7463 33.356 30.9315 33.1384 30.6228 33.5166C30.6691 33.4596 30.7154 33.3975 30.7617 33.3405C30.9521 33.1125 31.1631 32.8949 31.3843 32.6929C31.4409 32.6411 31.4975 32.5945 31.5541 32.5478C31.6056 32.5064 31.7908 32.3613 31.5747 32.5271C31.3483 32.7032 31.5798 32.5271 31.6313 32.4908C31.7033 32.439 31.7754 32.3924 31.8474 32.3458C32.5215 31.9002 32.8662 30.947 32.4031 30.2216C31.9658 29.543 31.0138 29.1907 30.2935 29.6621C28.0552 31.1335 26.6762 33.6047 26.666 36.3091C26.6608 37.5473 26.666 38.7855 26.666 40.0185C26.666 40.8889 26.7637 41.7489 27.2937 42.4742C27.9986 43.4379 29.0277 43.9922 30.2266 43.9974C30.983 44.0026 31.7394 43.9974 32.4957 43.9974C35.4183 43.9974 38.341 43.9974 41.2687 43.9974C42.2309 43.9974 43.1931 43.9974 44.1553 43.9974C44.5875 43.9974 45.0146 43.987 45.4365 43.8627C46.939 43.4172 47.9526 42.0287 47.9732 40.4641C47.9887 39.2466 47.9732 38.0239 47.9732 36.8064C47.9732 36.0138 47.9372 35.2315 47.7623 34.4595C47.4587 33.1229 46.7537 31.8691 45.8173 30.8744C45.3696 30.3978 44.8448 29.9885 44.2994 29.6362C43.6202 29.1958 42.5654 29.4704 42.1897 30.1957C41.7781 30.9573 42.0097 31.8484 42.7352 32.3147Z" fill="black"/>
<path d="M23.3008 35.4546C21.4073 35.4546 19.5189 35.4546 17.6254 35.4546C14.7234 35.4546 11.8162 35.4546 8.91419 35.4546C8.10121 35.4546 7.2625 35.5064 6.45467 35.4027C6.5936 35.4235 6.72738 35.439 6.8663 35.4597C6.38263 35.3924 5.91954 35.2629 5.46674 35.0764C5.59023 35.1282 5.71373 35.18 5.83722 35.2318C5.50276 35.0919 5.18375 34.9209 4.88016 34.7189C4.80298 34.6671 4.73095 34.6153 4.65891 34.5635C4.44795 34.4132 4.99851 34.838 4.70522 34.5997C4.56629 34.4857 4.43251 34.3614 4.30902 34.2371C4.18038 34.1075 4.06204 33.978 3.94884 33.8381C3.707 33.548 4.12893 34.0972 3.98486 33.8848C3.9334 33.8122 3.88195 33.7397 3.83049 33.662C3.62982 33.3563 3.46002 33.0351 3.3211 32.6984C3.37255 32.8227 3.424 32.947 3.47546 33.0714C3.29022 32.6207 3.16673 32.1492 3.0947 31.6622C3.11528 31.8021 3.13071 31.9368 3.1513 32.0767C3.02266 31.1079 3.09984 30.0924 3.09984 29.1184C3.09984 27.1704 3.09984 25.2225 3.09984 23.2745C3.09984 20.8913 3.09984 18.5133 3.09984 16.1301C3.09984 14.0941 3.09984 12.0529 3.09984 10.0168C3.09984 9.10498 3.0947 8.19316 3.09984 7.27615C3.09984 7.01193 3.12042 6.74771 3.1513 6.48349C3.13071 6.62337 3.11528 6.75807 3.0947 6.89795C3.16159 6.41096 3.29022 5.94469 3.47546 5.48877C3.424 5.61311 3.37255 5.73745 3.3211 5.86179C3.46002 5.52504 3.62982 5.20383 3.83049 4.89816C3.88195 4.82045 3.9334 4.74792 3.98486 4.67539C4.13408 4.46298 3.71215 5.01732 3.94884 4.72202C4.06204 4.58213 4.18553 4.44743 4.30902 4.32309C4.43766 4.19357 4.56629 4.07441 4.70522 3.96044C4.99336 3.71694 4.44795 4.14177 4.65891 3.9967C4.73095 3.9449 4.80298 3.89309 4.88016 3.84128C5.18375 3.63923 5.50276 3.46826 5.83722 3.32838C5.71373 3.38019 5.59023 3.432 5.46674 3.4838C5.9144 3.29729 6.38263 3.17296 6.8663 3.10042C6.72738 3.12115 6.5936 3.13669 6.45467 3.15741C6.96921 3.09006 7.4889 3.1056 8.00859 3.1056C8.82672 3.1056 9.64484 3.1056 10.463 3.1056C11.7082 3.1056 12.9534 3.1056 14.2037 3.1056C15.7422 3.1056 17.2807 3.1056 18.814 3.1056C20.4966 3.1056 22.1791 3.1056 23.8617 3.1056C25.57 3.1056 27.2783 3.1056 28.9865 3.1056C30.5765 3.1056 32.1613 3.1056 33.7512 3.1056C35.0788 3.1056 36.4114 3.1056 37.7389 3.1056C38.6754 3.1056 39.6119 3.1056 40.5432 3.1056C40.9446 3.1056 41.351 3.1056 41.7524 3.1056C42.02 3.1056 42.2875 3.12633 42.5551 3.15741C42.4161 3.13669 42.2824 3.12115 42.1434 3.10042C42.6271 3.16777 43.0902 3.29729 43.543 3.4838C43.4195 3.432 43.296 3.38019 43.1725 3.32838C43.507 3.46826 43.826 3.63923 44.1296 3.84128C44.2068 3.89309 44.2788 3.9449 44.3508 3.9967C44.5618 4.14695 44.0112 3.72212 44.3045 3.96044C44.4435 4.07441 44.5772 4.19875 44.7007 4.32309C44.8242 4.44743 44.9477 4.58213 45.0609 4.72202C45.3027 5.01214 44.8808 4.46298 45.0249 4.67539C45.0763 4.74792 45.1278 4.82045 45.1792 4.89816C45.3799 5.20383 45.5497 5.52504 45.6886 5.86179C45.6372 5.73745 45.5857 5.61311 45.5343 5.48877C45.7195 5.9395 45.843 6.41096 45.915 6.89795C45.8945 6.75807 45.879 6.62337 45.8584 6.48349C45.9562 7.23989 45.9099 8.02219 45.9099 8.78377C45.9099 10.2085 45.9099 11.6332 45.9099 13.0579C45.9099 14.8246 45.9099 16.5964 45.9099 18.3631C45.9099 19.9173 45.9099 21.4767 45.9099 23.031C45.9099 23.7874 45.8945 24.549 45.9099 25.3054C45.9099 25.3157 45.9099 25.3261 45.9099 25.3364C45.9099 26.1498 46.62 26.9269 47.4535 26.8907C48.2922 26.8544 48.9972 26.2068 48.9972 25.3364C48.9972 24.1086 48.9972 22.8756 48.9972 21.6477C48.9972 19.1557 48.9972 16.6638 48.9972 14.177C48.9972 12.1565 48.9972 10.136 48.9972 8.11544C48.9972 7.65953 49.0126 7.19326 48.9714 6.73735C48.8685 5.63384 48.5752 4.58731 48.0195 3.62368C47.4741 2.68078 46.728 1.90884 45.8482 1.27678C44.6596 0.421948 43.1674 0.00230258 41.7112 0.00230258C41.4179 0.00230258 41.1246 0.00230258 40.8262 0.00230258C39.3598 0.00230258 37.8985 0.00230258 36.432 0.00230258C34.1783 0.00230258 31.9246 0.00230258 29.6709 0.00230258C27.0982 0.00230258 24.5306 0.00230258 21.9579 0.00230258C19.5395 0.00230258 17.1212 0.00230258 14.708 0.00230258C12.9122 0.00230258 11.1216 0.00230258 9.32582 0.00230258C8.61575 0.00230258 7.90568 -0.00287823 7.19561 0.00230258C5.14773 0.017845 3.07411 0.934847 1.75688 2.53572C0.635176 3.89827 0.0074323 5.54058 0.00228686 7.3176C0.00228686 8.47292 0.00228686 9.62824 0.00228686 10.7836C0.00228686 13.1201 0.00228686 15.4566 0.00228686 17.7932C0.00228686 20.3162 0.00228686 22.8445 0.00228686 25.3675C0.00228686 27.0927 0.00228686 28.8179 0.00228686 30.5431C0.00228686 30.8436 -0.00285858 31.1441 0.00228686 31.4446C0.0537413 33.491 0.96963 35.553 2.56472 36.8534C3.92311 37.9569 5.53363 38.5734 7.28823 38.5786C7.81821 38.5786 8.34305 38.5786 8.87302 38.5786C11.1627 38.5786 13.4576 38.5786 15.7473 38.5786C17.9136 38.5786 20.0798 38.5786 22.246 38.5786C22.5959 38.5786 22.9458 38.5786 23.2905 38.5786C24.0984 38.5786 24.8702 37.8636 24.8342 37.0243C24.8085 36.1643 24.1653 35.4546 23.3008 35.4546Z" fill="black"/>
<path d="M39.5913 6.54038C39.051 7.01702 38.5108 7.48847 37.9705 7.96511C36.679 9.0997 35.3875 10.2343 34.096 11.3689C32.5266 12.747 30.9624 14.1251 29.393 15.5032C28.0449 16.6896 26.6917 17.876 25.3436 19.0624C24.685 19.6426 24.0109 20.2022 23.3677 20.798C23.3574 20.8083 23.3472 20.8135 23.342 20.8239C24.0675 20.8239 24.7982 20.8239 25.5237 20.8239C24.9937 20.3524 24.4586 19.881 23.9286 19.4095C22.6422 18.2697 21.361 17.1299 20.0747 15.9902C18.5259 14.6173 16.9771 13.2443 15.4283 11.8714C14.0854 10.6798 12.7424 9.48826 11.3994 8.29668C10.7511 7.72161 10.1079 7.13618 9.44932 6.56629C9.43903 6.55593 9.42874 6.55075 9.42359 6.54038C9.11486 6.2658 8.75468 6.08447 8.33276 6.08447C7.95199 6.08447 7.50434 6.25544 7.24192 6.54038C6.7068 7.131 6.5936 8.16198 7.24192 8.73705C7.7719 9.2085 8.30703 9.67995 8.83701 10.1514C10.1234 11.2912 11.4046 12.431 12.6909 13.5707C14.2397 14.9436 15.7885 16.3166 17.3373 17.6895C18.6802 18.8811 20.0232 20.0726 21.3662 21.2642C22.0145 21.8393 22.6577 22.4247 23.3163 22.9946C23.3266 23.005 23.3369 23.0102 23.342 23.0205C24.0006 23.606 24.8599 23.6008 25.5237 23.0205C26.0639 22.5439 26.6042 22.0724 27.1445 21.5958C28.436 20.4612 29.7275 19.3266 31.019 18.192C32.5884 16.8139 34.1526 15.4358 35.7219 14.0577C37.07 12.8713 38.4233 11.6849 39.7714 10.4985C40.43 9.91827 41.1092 9.35874 41.7472 8.76295C41.7575 8.75259 41.7678 8.74741 41.773 8.73705C42.3853 8.19824 42.3596 7.07919 41.773 6.54038C41.1246 5.93941 40.2396 5.9705 39.5913 6.54038Z" fill="black"/>
</svg>
