<svg width="32" height="32" viewBox="0 0 32 32" fill="none" xmlns="http://www.w3.org/2000/svg">
<path fill-rule="evenodd" clip-rule="evenodd" d="M15.9993 0C7.1623 0 -0.000701904 7.00746 -0.000701904 15.6504C-0.000701904 24.2953 7.1623 31.3008 15.9993 31.3008C24.8353 31.3008 31.9993 24.2953 31.9993 15.6504C31.9993 7.00746 24.8353 0 15.9993 0Z" fill="black"/>
<path fill-rule="evenodd" clip-rule="evenodd" d="M22.1724 11.7435C21.9524 10.6979 21.3564 9.97407 20.2954 9.64835C19.8374 9.5075 19.3634 9.48402 18.8904 9.46054C18.3794 9.43511 17.8684 9.42435 17.3584 9.42631C15.8524 9.42924 14.3464 9.39794 12.8404 9.46641C12.3644 9.48695 11.8934 9.53977 11.4414 9.70313C10.6914 9.97505 10.1694 10.4739 9.88441 11.2065C9.74441 11.5636 9.67541 11.9362 9.64941 12.3148C9.56541 13.5365 9.58741 14.7611 9.58841 15.9838C9.58841 16.4494 9.58041 16.915 9.59041 17.3806C9.60641 18.0702 9.59041 18.7627 9.70841 19.4465C9.79541 19.9512 9.96941 20.4197 10.3094 20.8218C10.8424 21.4527 11.5594 21.708 12.3614 21.7931C12.9024 21.8508 13.4464 21.8635 13.9894 21.8654C15.6444 21.8713 17.2984 21.9026 18.9524 21.8371C19.3204 21.8234 19.6844 21.7931 20.0424 21.7148C20.6684 21.5788 21.2064 21.2991 21.6094 20.7973C21.8774 20.4882 22.0254 20.1234 22.1304 19.7389C22.2654 19.2508 22.2764 18.7481 22.2884 18.2492C22.3334 16.514 22.3294 14.7787 22.2894 13.0425C22.2794 12.6082 22.2634 12.172 22.1724 11.7435ZM23.6773 18.176C23.6633 18.7648 23.6393 19.3536 23.5063 19.9317C23.3163 20.7612 22.9313 21.4811 22.2923 22.0651C21.8573 22.4583 21.3523 22.7351 20.7903 22.9161C20.3263 23.0638 19.8493 23.1469 19.3633 23.1694C17.3153 23.2692 15.2663 23.2359 13.2163 23.2124C13.0103 23.2105 12.8043 23.1958 12.5993 23.187C12.3773 23.1782 12.1543 23.1489 11.9323 23.1156C11.3783 23.0325 10.8513 22.8681 10.3623 22.608C10.0053 22.4192 9.6913 22.1678 9.4113 21.8734C9.0633 21.5046 8.7953 21.0899 8.6083 20.6213C8.3953 20.0882 8.2973 19.5346 8.2593 18.9673C8.2013 18.0938 8.2023 17.2183 8.1983 16.3449C8.1993 15.5134 8.1983 14.683 8.2053 13.8516C8.2123 13.2529 8.2223 12.6533 8.2813 12.0576C8.4043 10.8535 8.8543 9.80789 9.8483 9.03417C10.4323 8.58031 11.1053 8.3299 11.8323 8.20861C12.6123 8.07852 13.4023 8.0795 14.1893 8.07363C15.6303 8.06385 17.0723 8.05015 18.5133 8.0883C19.1043 8.10395 19.6963 8.1196 20.2773 8.24676C20.8983 8.38174 21.4813 8.60378 21.9903 8.9882C22.6563 9.49194 23.1163 10.1326 23.3793 10.9181C23.6203 11.636 23.6603 12.3765 23.6783 13.1189C23.7173 14.8053 23.7173 16.4906 23.6773 18.176ZM20.0914 12.5163C19.5744 12.5202 19.1574 12.1172 19.1544 11.6105C19.1504 11.1185 19.5664 10.7038 20.0674 10.7018C20.5864 10.6989 21.0064 11.0999 21.0084 11.6017C21.0114 12.1015 20.5994 12.5124 20.0914 12.5163ZM15.2652 13.204C14.1072 13.5092 13.3002 14.5901 13.3632 15.7629C13.3862 16.2744 13.5532 16.7361 13.8622 17.1489C14.6642 18.2239 16.1942 18.5046 17.3412 17.7886C17.5162 17.6791 17.6652 17.5431 17.8122 17.3983C17.9352 17.278 18.0472 17.1528 18.1352 17.0061C18.4992 16.4818 18.5992 15.89 18.5102 15.2816C18.2932 13.7772 16.7822 12.8059 15.2652 13.204ZM19.9024 16.0875C19.8294 16.69 19.6254 17.2476 19.2934 17.7592C18.9984 18.1925 18.6404 18.5652 18.1984 18.8566C17.7514 19.153 17.2634 19.3594 16.7314 19.4631C15.8904 19.6264 15.0824 19.5247 14.3004 19.1892C13.7844 18.9682 13.3584 18.6336 12.9784 18.2336C12.6194 17.855 12.3724 17.4139 12.1954 16.9316C12.0474 16.5287 11.9844 16.111 11.9714 15.6845C11.9794 15.4957 11.9654 15.304 11.9994 15.1191C12.0514 14.8462 12.1064 14.5724 12.2124 14.3122C12.7764 12.9457 13.7834 12.0869 15.2744 11.8218C17.2694 11.4687 19.1364 12.6513 19.7334 14.4462C19.9104 14.9812 19.9704 15.53 19.9024 16.0875Z" fill="white"/>
</svg>
