<svg width="32" height="32" viewBox="0 0 32 32" fill="none" xmlns="http://www.w3.org/2000/svg">
<path fill-rule="evenodd" clip-rule="evenodd" d="M16.0002 -0.000488281C7.1642 -0.000488281 0.000198364 7.00697 0.000198364 15.6499C0.000198364 24.2948 7.1642 31.3003 16.0002 31.3003C24.8372 31.3003 32.0002 24.2948 32.0002 15.6499C32.0002 7.00697 24.8372 -0.000488281 16.0002 -0.000488281Z" fill="black"/>
<path fill-rule="evenodd" clip-rule="evenodd" d="M22.2322 21.0994C23.1032 21.0025 23.8282 20.3648 24.0312 19.4982C24.3212 18.2657 24.3222 16.9197 24.3222 15.6501V15.6242C24.3222 14.3631 24.3222 13.0271 24.0342 11.8021C23.8312 10.9354 23.1072 10.2967 22.2352 10.2018C20.1722 9.97684 18.0832 9.97489 16.0032 9.97684C13.9242 9.97489 11.8342 9.97684 9.7702 10.2018C8.8992 10.2977 8.1762 10.9354 7.9712 11.8021C7.6812 13.0355 7.6782 14.3815 7.6782 15.6501C7.6782 16.9197 7.6782 18.2657 7.9692 19.4982C8.1722 20.3648 8.8952 21.0035 9.7662 21.0994C11.8312 21.3234 13.9202 21.3253 16.0002 21.3234C18.0802 21.3253 20.1692 21.3234 22.2322 21.0994ZM17.4232 16.3725C16.2423 16.9739 15.0644 17.5737 13.8584 18.178V12.7933C15.049 13.3912 16.21 13.9869 17.3758 14.5851C17.9646 14.8872 18.5547 15.19 19.1504 15.494C18.5716 15.7876 17.997 16.0802 17.4232 16.3725Z" fill="white"/>
</svg>
