<svg width="82" height="45" viewBox="0 0 82 45" fill="none" xmlns="http://www.w3.org/2000/svg">
<path d="M32.117 25.1967C30.8584 23.4686 29.42 22.755 29.42 22.755C27.9983 21.9223 25.9906 22.0049 25.9906 22.0049C25.581 22.9268 24.6487 23.5744 23.5633 23.5744C23.1604 23.5744 22.7775 23.4852 22.4346 23.3266C20.8797 25.342 21.0328 27.0238 21.0428 27.1328C21.1327 29.7232 23.6565 35.0592 33.7518 35.0791C33.7884 34.8643 34.6241 28.4611 32.117 25.1967Z" fill="white"/>
<path d="M23.9429 11.6498C21.1328 8.93392 15.9453 7.92949 9.27618 10.8668C9.29283 10.9428 11.2839 19.3317 20.2238 20.6666L20.2471 20.6699C20.4435 20.6798 20.6733 20.6996 20.9263 20.7294C20.9263 20.7294 20.9263 20.7294 20.9263 20.7327C21.0362 19.3813 22.1782 18.3174 23.57 18.3174C23.8597 18.3174 24.1793 18.367 24.4523 18.4595C27.0194 14.5673 24.2559 11.9307 23.9429 11.6498Z" fill="white"/>
<path d="M22.4412 23.3267C21.5389 22.9071 20.9163 22.0018 20.9163 20.9412C20.9163 20.8751 20.9196 20.7992 20.9263 20.7298C20.1339 20.6406 19.5512 20.6505 19.5512 20.6505C16.7044 20.6373 14.1073 21.9985 13.0719 22.8344C9.31943 25.7486 8.98981 30.5197 8.98981 30.5197C9.18625 30.5428 15.8221 31.4217 19.8508 27.4601C20.2404 27.0768 20.6399 26.5878 20.9529 26.0922C20.9529 26.0922 21.0595 25.927 21.2326 25.6429C21.2326 25.6429 21.2326 25.6429 21.2326 25.6396C21.4191 24.9986 21.772 24.1924 22.4412 23.3267Z" fill="white"/>
<path fill-rule="evenodd" clip-rule="evenodd" d="M38.3533 9.08618C37.108 9.08618 36.1691 10.0212 36.1691 11.2536C36.1691 12.4893 37.108 13.4244 38.3533 13.4244C39.5985 13.4244 40.5674 12.4893 40.5674 11.2536C40.5641 10.0212 39.5985 9.08618 38.3533 9.08618ZM53.1332 27.4701C52.1376 28.7851 50.4795 29.6045 48.5184 29.6045C45.2521 29.6045 41.6861 27.2157 41.6861 22.438C41.6861 17.743 45.0357 15.2187 48.4651 15.2187C50.0999 15.2187 51.8679 15.8233 53.0866 17.1945V11.2638C53.0866 10.4311 53.7791 9.7472 54.6215 9.7472C55.4605 9.7472 56.1564 10.4311 56.1564 11.2638V28.1144C56.1564 28.9371 55.4739 29.6078 54.6448 29.6078C53.8157 29.6078 53.1332 28.9338 53.1332 28.1144V27.4701ZM53.0832 22.4942C53.0832 19.5007 50.9523 17.9908 48.8513 17.9908C46.7471 17.9908 44.7293 19.5007 44.7293 22.4645C44.7293 25.4579 46.8037 26.8853 48.878 26.8853C50.9789 26.8853 53.0832 25.4315 53.0832 22.4942ZM61.4704 17.3533C62.466 16.0415 64.1241 15.2188 66.0852 15.2188C69.3482 15.2188 72.9175 17.6077 72.9175 22.382C72.9175 27.0771 69.5679 29.6013 66.1385 29.6013C64.5036 29.6013 62.7356 28.9967 61.517 27.6255V33.5563C61.517 34.3889 60.8211 35.0728 59.9821 35.0728C59.143 35.0728 58.4472 34.3889 58.4472 33.5563V16.709C58.4472 15.8863 59.1331 15.2155 59.9588 15.2155C60.7879 15.2155 61.4704 15.8896 61.4704 16.709V17.3533ZM61.5204 22.3291C61.5204 25.3226 63.6479 26.8326 65.7522 26.8326C67.8532 26.8326 69.8742 25.3226 69.8742 22.3589C69.8742 19.3654 67.7999 17.9381 65.7256 17.9381C63.6246 17.9381 61.5204 19.3918 61.5204 22.3291ZM36.8183 16.7353C36.8183 15.9027 37.5109 15.2188 38.3533 15.2188C39.1923 15.2188 39.8882 15.8994 39.8882 16.732V20.5647V23.7069V28.0847V28.088V28.1376H39.8849C39.8582 28.9504 39.1757 29.6046 38.3533 29.6046C37.5309 29.6046 36.8483 28.9471 36.8217 28.1376H36.8183V28.088V16.7353Z" fill="white"/>
</svg>
