<svg width="137" height="60" viewBox="0 0 137 60" fill="none" xmlns="http://www.w3.org/2000/svg">
<path fill-rule="evenodd" clip-rule="evenodd" d="M115.677 15.2014H116.677V17.9581H117.366V15.2014H118.358V14.6014H115.677V15.2014ZM119.829 14.6014H118.803V17.9581H119.455V15.2518L120.144 17.9581H120.854L121.535 15.2518V17.9581H122.186V14.6014H121.157L120.497 17.1567L119.829 14.6014Z" fill="black"/>
<path fill-rule="evenodd" clip-rule="evenodd" d="M105.788 39.7511C102.128 39.7511 100.216 38.0098 100.132 34.6028H92.7734C93.2315 41.828 97.2658 45.3566 105.04 45.3566C113.441 45.3566 118.055 41.7441 118.055 35.9329C118.055 33.3608 117.059 31.2 115.105 29.6224C113.695 28.4948 111.303 27.7188 108.011 26.6505L107.705 26.5511C107.171 26.376 106.667 26.2149 106.194 26.0636L106.194 26.0636C102.507 24.8841 100.678 24.2991 100.678 22.3133C100.678 20.8196 102.254 19.6154 104.834 19.6154C107.911 19.6154 109.529 20.9035 109.865 23.6853H117.055C117.055 17.7483 112.605 13.8462 105.33 13.8462C97.8458 13.8462 93.3996 17.5846 93.3954 23.186C93.3954 26.8825 95.6395 29.7441 99.9638 31.4476C102.24 32.3574 104.256 32.9502 105.919 33.4389C107.446 33.8878 108.674 34.2488 109.529 34.6867C110.235 35.0601 110.693 35.807 110.693 36.8014C110.693 38.6308 108.991 39.7511 105.788 39.7511ZM22.3613 14.6769H14.7086V44.5259H22.3613V14.6769ZM25.5131 14.6769H48.6308V20.7776H33.1658V26.2573H48.5888V32.2364H33.1658V38.4252H48.7149V44.5259H25.5131V14.6769ZM51.5851 14.6769H59.2756V38.0476H73.3328V44.5259H51.5851V14.6769ZM67.6385 20.7357H76.2031V44.5259H83.8516V20.7357H92.4624V14.6769H67.6385V20.7357Z" fill="#E31837"/>
</svg>
