<svg width="102" height="45" viewBox="0 0 102 45" fill="none" xmlns="http://www.w3.org/2000/svg">
<path fill-rule="evenodd" clip-rule="evenodd" d="M86.2655 11.2174H87.0035V13.2515H87.5121V11.2174H88.2439V10.7747H86.2655V11.2174ZM89.3293 10.7748H88.5726V13.2517H89.0533V11.2547L89.5618 13.2517H90.0859L90.5883 11.2547V13.2517H91.0689V10.7748H90.3092L89.8223 12.6603L89.3293 10.7748Z" fill="white"/>
<path fill-rule="evenodd" clip-rule="evenodd" d="M78.9688 29.3323C76.2678 29.3323 74.8569 28.0475 74.7949 25.5334H69.365C69.703 30.8649 72.68 33.4687 78.4168 33.4687C84.6157 33.4687 88.0206 30.803 88.0206 26.5149C88.0206 24.617 87.2857 23.0225 85.8437 21.8584C84.8028 21.0264 83.0381 20.4537 80.6091 19.6654L80.609 19.6654L80.3829 19.592C79.9889 19.4629 79.6176 19.3441 79.2688 19.2325L79.2685 19.2324L79.2681 19.2323C76.5475 18.362 75.198 17.9303 75.198 16.465C75.198 15.3628 76.3609 14.4742 78.2649 14.4742C80.5348 14.4742 81.7287 15.4247 81.9768 17.4774H87.2826C87.2826 13.0964 83.9986 10.217 78.6308 10.217C73.1079 10.217 69.8271 12.9757 69.824 17.109C69.824 19.8366 71.4799 21.9482 74.6708 23.2052C76.3502 23.8765 77.8384 24.314 79.065 24.6746C80.1917 25.0058 81.0977 25.2722 81.7287 25.5954C82.2497 25.8709 82.5877 26.422 82.5877 27.1558C82.5877 28.5057 81.3318 29.3323 78.9688 29.3323ZM17.4077 10.8299H11.7607V32.8556H17.4077V10.8299ZM19.7334 10.8299H36.792V15.3316H25.3803V19.3751H36.761V23.7871H25.3803V28.3538H36.8541V32.8556H19.7334V10.8299ZM38.972 10.8299H44.6469V28.0752H55.0197V32.8556H38.972V10.8299ZM50.8179 15.3007H57.1377V32.8556H62.7816V15.3007H69.1355V10.8299H50.8179V15.3007Z" fill="white"/>
</svg>
