<svg width="619" height="426" viewBox="0 0 619 426" fill="none" xmlns="http://www.w3.org/2000/svg">
<path fill-rule="evenodd" clip-rule="evenodd" d="M288.809 325.867C255.488 301.452 214.495 279.812 210.746 239.853C206.881 198.662 238.002 162.789 270.777 133.671C304.582 103.639 344.573 79.1793 390.325 80.314C443.17 81.6246 497.068 98.7693 524.737 139.97C553.853 183.326 552.162 239.62 529.798 288C507.812 335.563 465.112 377.904 410.806 386.438C362.026 394.103 326.837 353.729 288.809 325.867Z" fill="url(#paint0_linear)" style="mix-blend-mode:multiply"/>
<path fill-rule="evenodd" clip-rule="evenodd" d="M539.504 214.466C504.963 217.988 466.903 210.675 452.086 178.192C436.046 143.025 449.242 91.2946 478.604 67.0268C504.452 45.6628 534.515 73.3838 563.045 90.7118C591.83 108.194 624.049 127.527 617.275 161.348C610.304 196.147 573.678 210.982 539.504 214.466Z" fill="#00AAAD" style="mix-blend-mode:multiply"/>
<path fill-rule="evenodd" clip-rule="evenodd" d="M277.456 395.315C277.456 395.315 301.883 225.012 369.742 210.081C431.775 196.437 434.826 366.096 434.9 395.315H277.456Z" fill="#281616"/>
<path fill-rule="evenodd" clip-rule="evenodd" d="M238.996 395.315C238.996 395.315 282.648 225.012 352.189 210.081C415.766 196.437 399.665 366.096 396.439 395.315H238.996Z" fill="#A59D95"/>
<path fill-rule="evenodd" clip-rule="evenodd" d="M400.4 232.105C434.155 257.327 485.059 312.768 435.028 395.315H427.97C441.884 358.654 452.838 294.392 395.924 235.036C395.015 234.081 395.208 232.767 396.393 232.004C397.569 231.242 399.306 231.288 400.4 232.105Z" fill="#281616"/>
<path fill-rule="evenodd" clip-rule="evenodd" d="M369.439 209.456C427.961 204.293 412.549 366.776 409.388 395.315H403.957C407.017 367.667 421.546 214.611 369.439 209.456Z" fill="white"/>
<path fill-rule="evenodd" clip-rule="evenodd" d="M238.996 395.315C238.996 395.315 272.098 266.184 324.821 254.865C373.023 244.519 360.819 373.171 358.374 395.315H238.996Z" fill="#89817A"/>
<path fill-rule="evenodd" clip-rule="evenodd" d="M347.741 279.204C340.766 282.778 332.863 284.79 324.49 284.79C316.109 284.79 308.215 282.778 301.24 279.204H347.741Z" fill="#FF8685"/>
<path fill-rule="evenodd" clip-rule="evenodd" d="M312.461 309.323C324.849 309.323 334.893 313.301 334.893 318.199C334.893 323.096 324.849 327.074 312.461 327.074C300.072 327.074 290.019 323.096 290.019 318.199C290.019 313.292 300.072 309.323 312.461 309.323Z" fill="#FF8685"/>
<path fill-rule="evenodd" clip-rule="evenodd" d="M313.536 231.122L335.85 260.745C335.85 260.745 336.53 362.017 317.709 395.315H233.905L313.536 231.122Z" fill="#281616"/>
<path fill-rule="evenodd" clip-rule="evenodd" d="M0 377.536C0 377.536 24.0044 403.869 60.066 400.552C66.3428 399.973 98.5171 395.434 106.696 383.655L93.8761 363.79C93.8761 363.79 64.4405 366.694 55.1402 365.306C39.0852 362.908 15.9079 365.361 0 377.536Z" fill="#281616"/>
<path fill-rule="evenodd" clip-rule="evenodd" d="M204.892 290.799C204.892 290.799 64.4958 250.472 44.6729 253.596C36.2089 254.928 25.5393 287.969 47.2461 313.283C85.2929 357.661 186.503 410.319 243.076 380.981C313.536 344.43 244.547 297.387 204.892 290.799Z" fill="#009295"/>
<path fill-rule="evenodd" clip-rule="evenodd" d="M156.295 276.649C189.342 309.791 232.6 174.091 231.708 156.358C230.936 140.931 222.059 134.894 209.634 145.415C188.239 163.561 127.861 248.129 156.295 276.649Z" fill="#FCE8E8"/>
<path fill-rule="evenodd" clip-rule="evenodd" d="M295.588 32.8872C295.588 32.8872 295.698 28.2564 290.984 30.6729C290.387 30.9853 290.102 30.5259 289.973 29.5427V29.5336V29.4968C289.955 29.359 289.936 29.212 289.927 29.0466C284.67 -17.2526 231.984 53.3126 215.543 20.4005C216.425 25.794 219.55 32.6483 225.726 38.8136C240.825 53.8914 261.511 58.0169 272.99 54.4151C284.459 50.8042 294.789 46.7246 295.588 32.8872Z" fill="#281616"/>
<path fill-rule="evenodd" clip-rule="evenodd" d="M292.758 48.1854C294.348 51.9434 296.158 55.2419 297.996 56.6202C303.336 60.6354 305.688 45.6862 306.616 39.9896C307.545 34.2929 309.236 25.8214 305.063 25.656C303.887 25.6101 301.985 26.1062 299.853 26.8321C299.136 20.7128 303.418 -3.8472 277.135 0.976592C256.329 4.79887 242.939 18.1952 233.289 10.0729C223.64 1.95053 220.533 21.163 235.623 36.2408C250.723 51.3186 271.409 55.4441 282.888 51.8423C286.352 50.7581 289.725 49.628 292.758 48.1854Z" fill="white"/>
<path fill-rule="evenodd" clip-rule="evenodd" d="M234.741 33.4844C234.741 33.4844 239.934 53.9648 245.282 57.98C250.622 61.9953 252.974 47.0461 253.902 41.3495C254.831 35.6528 256.522 27.1813 252.349 27.0251C248.177 26.8781 234.741 33.4844 234.741 33.4844Z" fill="#281616"/>
<path fill-rule="evenodd" clip-rule="evenodd" d="M283.908 57.3826L297.307 65.3947L296.82 132.808L250.805 137.788L257.78 79.3239L283.908 57.3826Z" fill="#FFE1DA"/>
<path fill-rule="evenodd" clip-rule="evenodd" d="M258.672 136.934L250.805 137.789L257.78 79.3242L267.301 71.3306L268.441 72.0472L258.672 136.934Z" fill="#FF8685"/>
<path fill-rule="evenodd" clip-rule="evenodd" d="M283.816 57.3459L290.506 61.3428C291.894 84.3316 276.262 112.356 253.599 113.55L257.689 79.2873L283.816 57.3459Z" fill="#412F2F"/>
<path fill-rule="evenodd" clip-rule="evenodd" d="M242.865 17.6348C243.913 21.4938 232.783 98.9316 258.378 99.878C283.972 100.824 301.461 67.5725 297.343 43.0768C293.217 18.5811 242.865 17.6348 242.865 17.6348Z" fill="#FFD3CA"/>
<path fill-rule="evenodd" clip-rule="evenodd" d="M242.865 17.6348C243.279 19.16 241.79 32.1888 241.422 47.4412C255.244 55.9311 271.106 57.3277 280.655 53.8637C287.18 51.5024 293.318 49.0124 297.592 44.8318C297.518 44.2437 297.436 43.6556 297.344 43.086C293.217 18.5811 242.865 17.6348 242.865 17.6348Z" fill="#FF8685"/>
<path fill-rule="evenodd" clip-rule="evenodd" d="M242.865 17.6348C243.876 21.3468 233.601 93.2166 255.658 99.4462C255.658 99.1246 255.557 98.803 255.318 98.4722C251.743 93.3177 254.638 89.4679 255.391 86.5185C256.145 83.5599 255.759 81.86 254.932 79.7559C254.104 77.6519 255.575 78.0286 255.713 76.3471C255.841 74.6657 253.921 74.0777 254.022 73.0394C254.123 72.0011 255.125 69.5203 254.527 68.1972C253.93 66.8742 248.609 67.0671 248.03 65.1008C247.451 63.1346 254.343 28.3849 254.665 26.584L247.102 17.8461C244.464 17.6623 242.865 17.6348 242.865 17.6348Z" fill="#FF8685"/>
<path fill-rule="evenodd" clip-rule="evenodd" d="M303.437 31.2883C303.437 31.2883 303.547 26.6575 298.832 29.0832C294.633 31.2424 305.982 -3.71863 275.076 1.96885C254.27 5.79113 240.88 19.1875 231.231 11.0651C221.581 2.94279 218.475 22.1553 233.565 37.2331C248.655 52.3109 269.351 56.4364 280.829 52.8254C292.317 49.2145 302.637 45.1349 303.437 31.2883Z" fill="#412F2F"/>
<path fill-rule="evenodd" clip-rule="evenodd" d="M303.437 31.2885C303.437 31.2885 303.547 26.6576 298.833 29.0833C298.235 29.3957 297.95 28.9363 297.822 27.9532V27.944V27.9072C297.803 27.7694 297.785 27.6224 297.776 27.457C292.519 -18.8422 239.833 51.723 223.392 18.8109C224.274 24.2044 227.398 31.0588 233.574 37.224C248.664 52.3018 269.36 56.4273 280.838 52.8164C292.317 49.2146 302.637 45.1351 303.437 31.2885Z" fill="#281616"/>
<path fill-rule="evenodd" clip-rule="evenodd" d="M285.406 33.0892C285.406 33.0892 290.598 53.5696 295.937 57.5849C301.277 61.6001 303.63 46.6509 304.558 40.9543C305.486 35.2576 307.177 26.7861 303.005 26.6299C298.842 26.4828 285.406 33.0892 285.406 33.0892Z" fill="#281616"/>
<path fill-rule="evenodd" clip-rule="evenodd" d="M350.324 145.323L297.867 114.175C297.867 114.175 262.835 132.275 253.332 116.113C243.049 122.178 211.196 134.113 204.974 150.909C203.908 229.56 194.645 268.444 185.023 290.523C185.023 290.523 203.228 321.129 244.427 325.769C272.586 328.939 289.927 340.066 298.079 346.792C329.977 299.39 361.784 189.215 350.324 145.323Z" fill="white"/>
<path fill-rule="evenodd" clip-rule="evenodd" d="M298.088 346.801C322.91 309.92 347.668 235.027 352.033 182.939C348.762 176.627 345.003 170.296 340.665 163.984L322.69 186.872L304.392 275.381L234.309 256.674C234.309 256.674 296.002 290.56 277.245 334.287C286.913 338.467 293.778 343.254 298.088 346.801Z" fill="#FCE8E8"/>
<path fill-rule="evenodd" clip-rule="evenodd" d="M295.662 31.665C295.625 31.7477 283.954 61.4439 248.37 38.5837L247.846 39.4107C284.422 62.914 296.535 32.1336 296.562 32.0509L295.662 31.665Z" fill="#412F2F"/>
<path fill-rule="evenodd" clip-rule="evenodd" d="M308.39 24.7833C308.371 24.7741 301.212 20.8324 297.61 28.6422L298.492 29.0557C301.663 22.1922 307.912 25.6377 307.93 25.6469L308.39 24.7833Z" fill="#281616"/>
<path fill-rule="evenodd" clip-rule="evenodd" d="M304.153 20.8965C304.135 20.8965 296.039 22.0266 297.821 30.4338L298.777 30.2317C297.215 22.8444 304.291 21.8612 304.31 21.8612L304.153 20.8965Z" fill="#281616"/>
<path fill-rule="evenodd" clip-rule="evenodd" d="M292.666 69.8326C292.693 69.6488 292.565 69.4834 292.39 69.4559C292.206 69.4283 292.041 69.5569 292.013 69.7315C292.004 69.7775 289.513 86.8491 272.539 95.5503C272.374 95.633 272.31 95.8352 272.392 96.0006C272.475 96.1659 272.677 96.2302 272.843 96.1475C290.12 87.2809 292.656 69.8785 292.666 69.8326Z" fill="white"/>
<path fill-rule="evenodd" clip-rule="evenodd" d="M329.784 240.347C329.132 281.142 338.643 297.892 360.24 296.275C403.929 293.013 358.54 152.002 348.082 142.465C338.984 134.168 328.829 136.686 325.079 151.038C318.242 177.196 329.895 233.465 329.784 240.347Z" fill="white"/>
<path fill-rule="evenodd" clip-rule="evenodd" d="M303.611 237.756C343.689 245.603 382.03 259.146 376.911 282.006C368.374 320.137 271.134 282.53 233.06 260.754C235.504 252.742 239.162 240.898 242.268 230.81C265.941 230.405 297.757 236.607 303.611 237.756Z" fill="white"/>
<path fill-rule="evenodd" clip-rule="evenodd" d="M351.969 250.463C351.813 250.398 297.527 228.806 247.497 227.566L247.433 229.9C297.031 231.131 350.958 252.585 351.115 252.65L351.969 250.463Z" fill="#FCE8E8"/>
<path fill-rule="evenodd" clip-rule="evenodd" d="M332.211 147.454C332.165 147.509 313.84 165.886 328.139 235.468L330.428 234.907C316.376 166.547 333.819 149.071 333.865 149.016L332.211 147.454Z" fill="#A59D95"/>
<path fill-rule="evenodd" clip-rule="evenodd" d="M373.18 288.219C373.125 288.274 353.302 307.936 306.525 290.442C259.178 272.736 255.199 270.044 255.18 270.035L253.802 271.983C253.811 271.992 258.011 274.841 305.624 292.638C353.808 310.656 374.706 289.928 374.77 289.872L373.18 288.219Z" fill="#A59D95"/>
<path fill-rule="evenodd" clip-rule="evenodd" d="M195.83 206.801C195.711 206.783 195.601 206.773 195.5 206.773C191.952 206.764 170.705 239.382 170.705 239.382C170.402 257.832 178.682 258.613 181.797 258.512L208.605 239.116C213.962 220.041 195.83 206.801 195.83 206.801Z" fill="#FF8685"/>
<path fill-rule="evenodd" clip-rule="evenodd" d="M175.576 209.199C178.425 205.983 193.313 213.416 194.223 215.125C195.132 216.825 192.293 237.627 190.427 239.639C188.571 241.652 176.201 244.509 176.201 244.509C169.749 236.819 167.976 217.762 175.576 209.199Z" fill="#FF8685"/>
<path fill-rule="evenodd" clip-rule="evenodd" d="M222.666 229.891C222.684 228.806 217.023 213.839 217.023 213.839C217.023 213.839 196.134 219.526 195.086 221.226C194.029 222.926 197.898 242.267 199.589 244.279C201.28 246.292 213.402 249.149 213.402 249.149L222.666 229.891Z" fill="#FFE1DA"/>
<path fill-rule="evenodd" clip-rule="evenodd" d="M255.74 57.8788C257.22 63.7868 257.762 70.2277 255.483 75.2536C254.996 74.3348 253.948 73.8111 254.022 73.0393C254.123 72.001 255.124 69.5202 254.527 68.1971C253.93 66.874 248.609 67.067 248.03 65.1007C247.828 64.4024 248.572 59.5235 249.62 53.4685L255.74 57.8788Z" fill="#FFD3CA"/>
<path fill-rule="evenodd" clip-rule="evenodd" d="M295.543 53.9921C295.543 53.9921 299.862 44.9601 304.144 46.908C308.436 48.8559 303.887 68.8769 298.511 70.3287C293.144 71.7896 290.35 65.854 295.543 53.9921Z" fill="#FFE1DA"/>
<path fill-rule="evenodd" clip-rule="evenodd" d="M302.867 50.7949C299.191 54.9296 297.197 58.467 296.287 61.0673C294.191 67.0855 297.895 68.0595 299.917 59.6523L299.071 59.441C297.61 66.084 295.496 65.5511 297.132 61.1316C297.996 58.7978 299.908 55.389 303.51 51.3738L302.867 50.7949Z" fill="#FF8685"/>
<path fill-rule="evenodd" clip-rule="evenodd" d="M117.182 130.337L180.584 143.687L244.418 127.746L280.673 225.297L216.83 241.229L153.446 227.879L117.182 130.337Z" fill="white"/>
<path fill-rule="evenodd" clip-rule="evenodd" d="M113.139 134.591L176.531 147.941L240.365 132L276.629 229.551L212.786 245.483L149.393 232.133L113.139 134.591Z" fill="#E78711"/>
<path fill-rule="evenodd" clip-rule="evenodd" d="M226.093 230.46C226.093 229.376 218.227 214.409 218.227 214.409C218.227 214.409 190.068 220.096 188.681 221.796C187.284 223.496 192.798 242.837 195.123 244.849C197.439 246.861 213.88 249.719 213.88 249.719L226.093 230.46Z" fill="#FF8685"/>
<path fill-rule="evenodd" clip-rule="evenodd" d="M217.914 214.537C218.024 214.482 218.125 214.436 218.217 214.408C221.618 213.223 250.189 237.351 250.189 237.351C255.143 254.91 247.414 258.411 244.409 259.357L213.852 249.728C203.918 233.244 217.914 214.537 217.914 214.537Z" fill="#FFD3CA"/>
<path fill-rule="evenodd" clip-rule="evenodd" d="M28.5164 257.051C28.5164 257.051 7.80204 263.97 23.2505 292.619C38.6897 321.267 150.312 393.036 150.312 393.036L178.148 385.254C178.148 385.245 83.0959 228.412 28.5164 257.051Z" fill="#009295"/>
<path fill-rule="evenodd" clip-rule="evenodd" d="M223.786 310.039C229.19 308.845 289.339 281.703 289.339 281.703C289.339 281.703 330.51 364.792 258.433 393.615C186.346 422.438 223.786 310.039 223.786 310.039Z" fill="#00AAAD"/>
<path fill-rule="evenodd" clip-rule="evenodd" d="M284.937 275.308C284.937 275.308 302.058 291.332 280.857 312.391C221.691 363.22 98.5723 390.077 98.5723 390.077L78.4829 361.493C188.056 306.244 242.433 222.917 284.937 275.308Z" fill="#00AAAD"/>
<path fill-rule="evenodd" clip-rule="evenodd" d="M113.313 364.369C113.313 364.369 116.566 378.822 149.439 393.992C155.155 396.629 188.726 399.698 202.41 397.86C214.091 398.907 233.491 390.657 220.763 377.839C211.325 368.338 190.151 374.393 185.124 370.957C177.992 366.087 171.569 361.603 167.258 358.176C154.567 348.069 129.331 355.282 113.313 364.369Z" fill="#281616"/>
<path d="M78.7916 272.319L77.0654 273.89L128.123 329.973L129.849 328.402L78.7916 272.319Z" fill="white"/>
<path fill-rule="evenodd" clip-rule="evenodd" d="M218.704 274.849L101.1 352.985L99.813 351.037L217.418 272.901L218.704 274.849Z" fill="white"/>
<path fill-rule="evenodd" clip-rule="evenodd" d="M265.757 325.384C265.656 325.457 229.383 350.752 188.58 362.026L187.955 359.784C228.382 348.62 264.333 323.537 264.434 323.472L265.757 325.384Z" fill="#281616"/>
<defs>
<linearGradient id="paint0_linear" x1="222.023" y1="411.173" x2="514.693" y2="338.037" gradientUnits="userSpaceOnUse">
<stop stop-color="#E01E3C"/>
<stop offset="1" stop-color="#FF8300"/>
</linearGradient>
</defs>
</svg>
